<?xml version="1.0" encoding="UTF-8"?>
<svg enable-background="new 0 0 574 356" viewBox="0 0 444.33084 444.33084" xmlns="http://www.w3.org/2000/svg">
 <path transform="matrix(1.085 0 0 1.085 -60.987 56.63)" d="m465.74 152.57a204.77 204.77 0 1 1 -409.53 0 204.77 204.77 0 1 1 409.53 0z" fill="#f9e400"/>
 <g transform="translate(-84.316 26.767)">
  <path d="m209.91 186.93c4.324-1.491 22.96 2.087 26.539 4.771-0.596 25.197 13.568 51.885 37.87 63.812 0.447 4.175-5.517 22.663-8.946 26.091-34.291-14.462-60.234-58.295-55.463-94.674z"/>
  <path d="m347.76 281.33c-3.453-2.999-9.672-20.929-9.138-25.369 22.12-12.082 38.15-37.692 36.329-64.702 3.392-2.475 22.384-6.555 27.067-5.299 4.623 36.928-20.368 81.312-54.258 95.37z"/>
  <path d="m361.018,115.336c-.87,4.49-13.289,18.84-17.401,20.598-21.523-13.115-51.718-14.192-74.198.89-3.839-1.7-16.869-16.107-18.123-20.792 29.669-22.467 80.601-23.017 109.722-.696z"/>
  <path d="m279 215.25 10.75-7c13.25 12.75 27.5 7.5 32.75 0l11.75 6.75c-17.75 40.25-1.75 72.25 23.5 92.5s76 16 98.25-13.75l5.75 3.75c-5 15.25-48.5 44.5-85.5 43.25s-59.75-12.5-69.25-23.25c-11.75 10.75-40.5 24.5-69.5 24.5s-61.25-12-86.5-43l7-4.5c38.5 39.75 80.25 25 100.25 10.75s39.75-54.25 20.75-90z"/>
  <path d="m338.21 208.1-11.438-5.81c4.418-17.851-7.254-27.566-16.375-28.362l-0.029-13.551c43.732-4.754 63.445-34.61 68.357-66.602s-24.143-73.818-61.032-78.213l0.372-6.854c15.707-3.295 62.789 19.753 80.206 52.421s19.05 57.994 14.489 71.597c15.186 4.801 41.469 22.824 55.969 47.938s20.232 59.045 6.01 96.411l-7.396-3.812c15.174-53.217-18.475-81.999-40.815-92.194s-66.857-7.299-88.318 27.031z"/>
  <path d="m303.371,160.359 .688,12.811c-17.668,5.099-20.248,20.065-16.376,28.361l-11.721,6.801c-25.983-35.496-61.696-37.64-91.856-25.897s-51.858,57.817-37.219,91.962l-6.122,3.104c-10.707-11.955-14.288-64.253 5.294-95.671s40.7-45.494 54.761-48.346c-3.435-15.552-.968-47.325 13.531-72.44s41.018-47.044 80.488-53.41l.398,8.312c-53.674,13.468-61.776,56.999-59.436,81.444s27.108,61.549 67.57,62.969z"/>
 </g>
</svg>
